<svg id="Layer_1" data-name="Layer 1" xmlns="http://www.w3.org/2000/svg" viewBox="0 0 50 50"><title>h1</title><path d="M12.56,37.57a3.11,3.11,0,0,1-1.46-.34,1.12,1.12,0,0,1-.66-1.06V9.69a1.08,1.08,0,0,1,.66-1,3.49,3.49,0,0,1,2.92,0,1.08,1.08,0,0,1,.66,1v11h10v-11a1.08,1.08,0,0,1,.66-1,3.49,3.49,0,0,1,2.92,0,1.08,1.08,0,0,1,.66,1V36.17a1.12,1.12,0,0,1-.66,1.06,3.3,3.3,0,0,1-2.92,0,1.12,1.12,0,0,1-.66-1.06V24.09h-10V36.17A1.12,1.12,0,0,1,14,37.23,3.11,3.11,0,0,1,12.56,37.57Z"/><path d="M37.64,37.57a3,3,0,0,1-1.46-.36,1.13,1.13,0,0,1-.66-1V13.93l-1.4,1.76a2.25,2.25,0,0,1-.46.3,1,1,0,0,1-.42.1,1.24,1.24,0,0,1-1-.54,1.91,1.91,0,0,1-.4-1.18,1.89,1.89,0,0,1,.24-.92,2.36,2.36,0,0,1,.6-.72l4.16-4a1.65,1.65,0,0,1,.46-.32,1.46,1.46,0,0,1,.62-.12,2.46,2.46,0,0,1,1.28.36,1.15,1.15,0,0,1,.6,1V36.17a1.13,1.13,0,0,1-.66,1A3,3,0,0,1,37.64,37.57Z"/></svg>