<svg id="Layer_1" data-name="Layer 1" xmlns="http://www.w3.org/2000/svg" viewBox="0 0 50 50"><title>h2</title><path d="M8,37.57a3.11,3.11,0,0,1-1.46-.34,1.12,1.12,0,0,1-.66-1.06V9.69a1.08,1.08,0,0,1,.66-1,3.49,3.49,0,0,1,2.92,0,1.08,1.08,0,0,1,.66,1v11h10v-11a1.08,1.08,0,0,1,.66-1,3.49,3.49,0,0,1,2.92,0,1.08,1.08,0,0,1,.66,1V36.17a1.12,1.12,0,0,1-.66,1.06,3.3,3.3,0,0,1-2.92,0,1.12,1.12,0,0,1-.66-1.06V24.09h-10V36.17a1.12,1.12,0,0,1-.66,1.06A3.11,3.11,0,0,1,8,37.57Z"/><path d="M30,37.57a2.52,2.52,0,0,1-1.22-.38,1.14,1.14,0,0,1-.66-1V32.29a5.24,5.24,0,0,1,.94-3,12.91,12.91,0,0,1,2.44-2.62c1-.83,2.06-1.63,3.18-2.42s2.17-1.59,3.16-2.4a13.78,13.78,0,0,0,2.44-2.54,4.79,4.79,0,0,0,1-2.88,4.43,4.43,0,0,0-.46-2,4,4,0,0,0-1.42-1.6,4.91,4.91,0,0,0-5.34.32,3.63,3.63,0,0,0-1.18,3,1.43,1.43,0,0,1-.58,1.1,2.43,2.43,0,0,1-1.62.5,2,2,0,0,1-1.4-.5,2.54,2.54,0,0,1-.52-1.86,6.27,6.27,0,0,1,1.12-3.74,7.58,7.58,0,0,1,3-2.46,9.35,9.35,0,0,1,4-.88,9.24,9.24,0,0,1,4.28,1,8.12,8.12,0,0,1,3.14,2.78,7.37,7.37,0,0,1,1.18,4.18,7.86,7.86,0,0,1-.94,3.84,12.47,12.47,0,0,1-2.42,3.12A27.42,27.42,0,0,1,39,25.81c-1.11.77-2.15,1.51-3.12,2.2a15.09,15.09,0,0,0-2.4,2.08,3.23,3.23,0,0,0-.94,2.2v1.52H44.26a1.23,1.23,0,0,1,1,.54,2,2,0,0,1,.42,1.3A2.23,2.23,0,0,1,45.24,37a1.2,1.2,0,0,1-1,.58Z"/></svg>