<svg id="Layer_1" data-name="Layer 1" xmlns="http://www.w3.org/2000/svg" viewBox="0 0 50 50"><title>h3</title><path d="M7.72,37.57a3.11,3.11,0,0,1-1.46-.34,1.12,1.12,0,0,1-.66-1.06V9.69a1.08,1.08,0,0,1,.66-1,3.49,3.49,0,0,1,2.92,0,1.08,1.08,0,0,1,.66,1v11h10v-11a1.08,1.08,0,0,1,.66-1,3.49,3.49,0,0,1,2.92,0,1.08,1.08,0,0,1,.66,1V36.17a1.12,1.12,0,0,1-.66,1.06,3.3,3.3,0,0,1-2.92,0,1.12,1.12,0,0,1-.66-1.06V24.09h-10V36.17a1.12,1.12,0,0,1-.66,1.06A3.11,3.11,0,0,1,7.72,37.57Z"/><path d="M36.44,37.81a11.15,11.15,0,0,1-4-.64,8.15,8.15,0,0,1-2.76-1.68,6.48,6.48,0,0,1-1.58-2.28,6.57,6.57,0,0,1-.5-2.44,1.76,1.76,0,0,1,.46-1.44A2.55,2.55,0,0,1,29.6,29a2.78,2.78,0,0,1,1.72.38,1.54,1.54,0,0,1,.44,1.22,2.84,2.84,0,0,0,.3,1.26A3.65,3.65,0,0,0,32.92,33a4.14,4.14,0,0,0,1.46.8,6.65,6.65,0,0,0,2.1.3,5,5,0,0,0,3.66-1.18,5.17,5.17,0,0,0,1.18-3.78v-.76A3.92,3.92,0,0,0,40,25a5.8,5.8,0,0,0-3.5-1,1.15,1.15,0,0,1-1.08-.54,2.23,2.23,0,0,1-.32-1.14,2.29,2.29,0,0,1,.32-1.2,1.12,1.12,0,0,1,1-.52,6.32,6.32,0,0,0,2.18-.34,2.68,2.68,0,0,0,1.46-1.3,5.86,5.86,0,0,0,.52-2.76,4.18,4.18,0,0,0-1-3.16,4.19,4.19,0,0,0-3-1,6,6,0,0,0-2,.28,3.4,3.4,0,0,0-1.28.76,2.79,2.79,0,0,0-.68,1,3.6,3.6,0,0,0-.2,1.2A1.81,1.81,0,0,1,32,16.57a2.06,2.06,0,0,1-1.58.48,4.58,4.58,0,0,1-1.4-.16,1,1,0,0,1-.64-.6,3.51,3.51,0,0,1-.16-1.2,6.66,6.66,0,0,1,.4-2.14A6.55,6.55,0,0,1,30,10.71,6.75,6.75,0,0,1,32.56,9a11,11,0,0,1,4.08-.66A11.82,11.82,0,0,1,40.8,9a5.74,5.74,0,0,1,2.84,2.24,7.5,7.5,0,0,1,1,4.2,9.6,9.6,0,0,1-.86,4.26,4.89,4.89,0,0,1-2.34,2.42,6.67,6.67,0,0,1,2.92,2.16,6.41,6.41,0,0,1,1.16,4v.76a9.38,9.38,0,0,1-1.22,5.08A6.94,6.94,0,0,1,41,37,12,12,0,0,1,36.44,37.81Z"/></svg>