<svg id="Layer_1" data-name="Layer 1" xmlns="http://www.w3.org/2000/svg" viewBox="0 0 50 50"><title>h4</title><path d="M8.3,37.57a3.11,3.11,0,0,1-1.46-.34,1.12,1.12,0,0,1-.66-1.06V9.69a1.08,1.08,0,0,1,.66-1,3.49,3.49,0,0,1,2.92,0,1.08,1.08,0,0,1,.66,1v11h10v-11a1.08,1.08,0,0,1,.66-1,3.49,3.49,0,0,1,2.92,0,1.08,1.08,0,0,1,.66,1V36.17A1.12,1.12,0,0,1,24,37.23a3.3,3.3,0,0,1-2.92,0,1.12,1.12,0,0,1-.66-1.06V24.09h-10V36.17a1.12,1.12,0,0,1-.66,1.06A3.11,3.11,0,0,1,8.3,37.57Z"/><path d="M40.74,37.57a3,3,0,0,1-1.46-.36,1.13,1.13,0,0,1-.66-1V31h-9.8a1.43,1.43,0,0,1-1.08-.42,1.57,1.57,0,0,1-.4-1.14A1.85,1.85,0,0,1,27.4,29a1.57,1.57,0,0,1,.18-.44L37.22,9.49a2.15,2.15,0,0,1,.86-.9,2.21,2.21,0,0,1,1-.26,2.36,2.36,0,0,1,.88.2,2.53,2.53,0,0,1,.84.56,1.19,1.19,0,0,1,.36.88,1.79,1.79,0,0,1-.16.64L32.74,27.05h5.88V21.53a1.1,1.1,0,0,1,.66-1.08,3.49,3.49,0,0,1,2.92,0,1.1,1.1,0,0,1,.66,1.08v5.52h2a1.14,1.14,0,0,1,1.06.62,2.77,2.77,0,0,1,.34,1.38,2.34,2.34,0,0,1-.42,1.34,1.2,1.2,0,0,1-1,.62h-2v5.16a1.13,1.13,0,0,1-.66,1A3,3,0,0,1,40.74,37.57Z"/></svg>