<?xml version="1.0"?>
<svg xmlns="http://www.w3.org/2000/svg" height="512px" viewBox="0 0 512 512" width="512px" class=""><g><g id="Filled_outline" data-name="Filled outline"><rect fill="#348fd9" height="464" rx="32" width="256" x="128" y="24" data-original="#348FD9" class="active-path" style="fill:#E3E9ED" data-old_color="#348fd9"/><path d="m384 69.87v386.13a32 32 0 0 1 -32 32h-192a32 32 0 0 1 -32-32v-134.4z" fill="#3086cd" data-original="#3086CD" class="" style="fill:#FFFFFF" data-old_color="#3086cd"/><path d="m216 40h80l8-16h-96z" fill="#2a71ad" data-original="#2A71AD"/><path d="m216 248h-56v48l-64-48h-40a32 32 0 0 1 -32-32v-112a32 32 0 0 1 32-32h160a32 32 0 0 1 32 32v112a32 32 0 0 1 -32 32z" fill="#ffb531" data-original="#FFB531" class=""/><path d="m336 232h24v40l56-40h40a32 32 0 0 0 32-32v-96a32 32 0 0 0 -32-32h-120a32 32 0 0 0 -32 32v96a32 32 0 0 0 32 32z" fill="#ffb531" data-original="#FFB531" class=""/><path d="m408 136v-16a16 16 0 0 0 -16-16h-16v96h64a16 16 0 0 0 16-16v-32a16 16 0 0 0 -16-16z" fill="#fec9a3" data-original="#FEC9A3" class=""/><path d="m336 136h40v64h-40z" fill="#348fd9" data-original="#348FD9" class="active-path" style="fill:#E3E9ED" data-old_color="#348fd9"/><path d="m176 128 40 16-40 16z" fill="#fa6d00" data-original="#FA6D00" class=""/><path d="m120 128 14.059-14.059a33.941 33.941 0 0 1 24-9.941 33.941 33.941 0 0 1 33.941 33.941 78.059 78.059 0 0 1 -78.059 78.059h-49.941l16-24a24 24 0 0 1 -24-24v-8h24a24 24 0 0 1 -24-24v-8z" fill="#348fd9" data-original="#348FD9" class="active-path" style="fill:#E3E9ED" data-old_color="#348fd9"/><path d="m152 128h16v16h-16z" fill="#2a71ad" data-original="#2A71AD"/><path d="m161.938 336 29.221 67.102 24.376-23.954 136.465-8.079-58.441-131.608-97.505 95.817z" fill="#f35244" data-original="#F35244" class=""/><path d="m448 496v-113.55a64 64 0 0 0 -14.024-39.98l-49.976-62.47v80l-39.716-39.716a28.284 28.284 0 0 0 -20-8.284 28.284 28.284 0 0 0 -28.284 28.284 28.284 28.284 0 0 0 8.284 20l39.716 39.716a73.712 73.712 0 0 0 1.875 78.813l6.125 9.187v8" fill="#fec9a3" data-original="#FEC9A3" class=""/><path d="m160 32h43.056l5.789 11.578a8 8 0 0 0 7.155 4.422h80a8 8 0 0 0 7.155-4.422l5.789-11.578h43.056a23.983 23.983 0 0 1 23.244 17.994l15.494-3.988a39.979 39.979 0 0 0 -38.738-30.006h-192a39.979 39.979 0 0 0 -38.738 30.006l15.494 3.988a23.983 23.983 0 0 1 23.244-17.994z" data-original="#000000" class="" style="fill:#000000"/><path d="m160 304a8 8 0 0 0 8-8v-40h48a40.045 40.045 0 0 0 40-40v-112a40.045 40.045 0 0 0 -40-40h-160a40.045 40.045 0 0 0 -40 40v112a40.045 40.045 0 0 0 40 40h37.333l61.867 46.4a7.993 7.993 0 0 0 4.8 1.6zm-8-56v32l-51.2-38.4a8.006 8.006 0 0 0 -4.8-1.6h-40a24.028 24.028 0 0 1 -24-24v-112a24.028 24.028 0 0 1 24-24h160a24.028 24.028 0 0 1 24 24v112a24.028 24.028 0 0 1 -24 24h-56a8 8 0 0 0 -8 8z" data-original="#000000" class="" style="fill:#000000"/><path d="m456 64h-120a40.045 40.045 0 0 0 -40 40v96a40.045 40.045 0 0 0 40 40h16v32a8 8 0 0 0 12.65 6.51l53.913-38.51h37.437a40.045 40.045 0 0 0 40-40v-96a40.045 40.045 0 0 0 -40-40zm24 136a24.028 24.028 0 0 1 -24 24h-40a8 8 0 0 0 -4.65 1.49l-43.35 30.964v-24.454a8 8 0 0 0 -8-8h-24a24.028 24.028 0 0 1 -24-24v-96a24.028 24.028 0 0 1 24-24h120a24.028 24.028 0 0 1 24 24z" data-original="#000000" class="" style="fill:#000000"/><path d="m440 128h-24v-8a24.028 24.028 0 0 0 -24-24h-16a8 8 0 0 0 -8 8v24h-32a8 8 0 0 0 -8 8v64a8 8 0 0 0 8 8h104a24.028 24.028 0 0 0 24-24v-32a24.028 24.028 0 0 0 -24-24zm-96 16h24v48h-24zm104 40a8.009 8.009 0 0 1 -8 8h-56v-80h8a8.009 8.009 0 0 1 8 8v16a8 8 0 0 0 8 8h32a8.009 8.009 0 0 1 8 8z" data-original="#000000" class="" style="fill:#000000"/><path d="m197.067 160.191 21.905-8.763a8 8 0 0 0 0-14.856l-20.043-8.016a41.935 41.935 0 0 0 -70.529-20.272l-11.713 11.716h-60.687a8 8 0 0 0 -8 8v8a31.806 31.806 0 0 0 4.715 16.7 8 8 0 0 0 -4.715 7.3v8a32.045 32.045 0 0 0 18.917 29.2l-9.573 14.36a8 8 0 0 0 6.656 12.44h49.941a86.2 86.2 0 0 0 83.126-63.809zm-83.126 47.809h-34.993l7.708-11.562a8 8 0 0 0 -6.656-12.438 16.019 16.019 0 0 1 -16-16h16a8 8 0 0 0 0-16 16.019 16.019 0 0 1 -16-16h56a8 8 0 0 0 5.657-2.343l14.059-14.057a25.94 25.94 0 0 1 44.284 18.341 70.138 70.138 0 0 1 -70.059 70.059z" data-original="#000000" class="" style="fill:#000000"/><path d="m152 128h16v16h-16z" data-original="#000000" class="" style="fill:#000000"/><path d="m269.154 294.306h17.089v16h-17.089z" transform="matrix(.713 -.701 .701 .713 -132.259 281.331)" data-original="#000000" class="" style="fill:#000000"/><path d="m230.141 324.248h34.176v16h-34.176z" transform="matrix(.713 -.701 .701 .713 -161.984 268.561)" data-original="#000000" class="" style="fill:#000000"/><path d="m390.247 275a8 8 0 0 0 -14.247 5v60.687l-26.059-26.06a36.029 36.029 0 0 0 -18.67-9.956l-30.4-68.458a8 8 0 0 0 -12.919-2.459l-95.245 93.6-30.936.646a8 8 0 0 0 -7.166 11.192l29.22 67.1a8 8 0 0 0 12.943 2.512l22.232-21.845 95.017-5.63 20.091 20.091a82.155 82.155 0 0 0 3.067 78.58h-177.175a24.028 24.028 0 0 1 -24-24v-152h-16v152a40.045 40.045 0 0 0 40 40h200v-8a8 8 0 0 0 -1.344-4.438l-6.125-9.186a66 66 0 0 1 -1.671-70.26 8 8 0 0 0 -1.2-9.773l-39.716-39.716a20.284 20.284 0 0 1 28.686-28.686l63.716 63.716 11.314-11.314-21.66-21.657v-53.879l35.729 44.66a56.206 56.206 0 0 1 12.271 34.983v113.55h16v-113.55a72.262 72.262 0 0 0 -15.777-44.977zm-102.247 65.284a36.045 36.045 0 0 0 10.627 25.657l.255.256-83.825 4.967a8 8 0 0 0 -5.134 2.28l-16.072 15.795-19.812-45.493 22.18-.468a8 8 0 0 0 5.438-2.292l89.277-87.729 23.181 52.2a36.342 36.342 0 0 0 -26.115 34.827z" data-original="#000000" class="" style="fill:#000000"/><path d="m168 432h56v16h-56z" data-original="#000000" class="" style="fill:#000000"/><path d="m248 432h56v16h-56z" data-original="#000000" class="" style="fill:#000000"/></g></g> </svg>
