<?xml version="1.0"?>
<svg xmlns="http://www.w3.org/2000/svg" id="filled_outline" height="512px" viewBox="0 0 512 512" width="512px" data-name="filled outline" class=""><g><path d="m24 80h464v288h-464z" fill="#548aff" data-original="#548AFF" class="active-path" style="fill:#FFFFFF" data-old_color="#548aff"/><g fill="#e0edff"><path d="m328 416h-144l-24-48h192z" data-original="#E0EDFF"/><path d="m120 368-32 80h-24v-80z" data-original="#E0EDFF"/><path d="m392 368 32 80h24v-80z" data-original="#E0EDFF"/></g><path d="m256 112a112 112 0 1 0 112 112 112 112 0 0 0 -112-112zm0 32a79.62467 79.62467 0 0 1 36.98926 9.06982l-107.91944 107.91918a79.99215 79.99215 0 0 1 70.93018-116.989zm0 160a79.62213 79.62213 0 0 1 -36.989-9.06982l107.91918-107.91925a79.9922 79.9922 0 0 1 -70.93018 116.98907z" fill="#f5714f" data-original="#F5714F" class=""/><path d="m488 72h-464a8.00008 8.00008 0 0 0 -8 8v288a8.00008 8.00008 0 0 0 8 8h32v72a8.00008 8.00008 0 0 0 8 8h24a7.99975 7.99975 0 0 0 7.42773-5.02881l29.98853-74.97119h29.63965l21.78882 43.57764a7.99979 7.99979 0 0 0 7.15527 4.42236h144a7.99979 7.99979 0 0 0 7.15527-4.42236l21.78907-43.57764h29.63966l29.98829 74.97119a7.99975 7.99975 0 0 0 7.42771 5.02881h24a8.00008 8.00008 0 0 0 8-8v-72h32a8.00008 8.00008 0 0 0 8-8v-288a8.00008 8.00008 0 0 0 -8-8zm-405.416 368h-10.584v-64h36.18384zm240.47168-32h-134.11134l-16-32h166.11132zm116.94432 32h-10.584l-25.59961-64h36.18361zm40-80h-448v-272h448z" data-original="#000000" class="" style="fill:#000000"/><circle cx="280" cy="392" r="8" data-original="#000000" class="" style="fill:#000000"/><circle cx="304" cy="392" r="8" data-original="#000000" class="" style="fill:#000000"/><path d="m185.07031 268.98926a8.0011 8.0011 0 0 0 5.65723-2.34326l107.91894-107.91944a7.99971 7.99971 0 0 0 -1.95214-12.74707 87.99166 87.99166 0 0 0 -118.71387 118.71533 8.001 8.001 0 0 0 7.08984 4.29444zm70.92969-116.98926a71.30937 71.30937 0 0 1 22.99316 3.75195l-91.24116 91.24219a71.29332 71.29332 0 0 1 -3.752-22.99414 72.08124 72.08124 0 0 1 72-72z" data-original="#000000" class="" style="fill:#000000"/><path d="m256 344a120 120 0 1 0 -120-120 120.13623 120.13623 0 0 0 120 120zm0-224a104 104 0 1 1 -104 104 104.11791 104.11791 0 0 1 104-104z" data-original="#000000" class="" style="fill:#000000"/><path d="m211.10254 296.14111a8.00071 8.00071 0 0 0 4.20312 5.8794 87.99166 87.99166 0 0 0 118.71387-118.71533 8.00016 8.00016 0 0 0 -12.74707-1.95118l-107.91894 107.91944a8.00365 8.00365 0 0 0 -2.25098 6.86767zm113.14551-95.13525a71.29332 71.29332 0 0 1 3.75195 22.99414 72.08124 72.08124 0 0 1 -72 72 71.30937 71.30937 0 0 1 -22.99316-3.752z" data-original="#000000" class="" style="fill:#000000"/></g> </svg>
