<svg height="480pt" viewBox="0 0 480 480.03504" width="480pt" xmlns="http://www.w3.org/2000/svg"><path d="m365.710938 187.972656c13.847656 33.320313 13.847656 70.78125 0 104.097656l88.695312 36.753907c23.632812-56.84375 23.632812-120.761719 0-177.601563zm0 0" fill="#4398d1"/><path d="m114.417969 292.070312-88.699219 36.753907c23.484375 56.910156 68.6875 102.113281 125.601562 125.597656l36.734376-88.695313c-33.371094-13.769531-59.875-40.28125-73.636719-73.65625zm0 0" fill="#e8594a"/><path d="m188.015625 365.671875-36.75 88.695313c56.839844 23.632812 120.757813 23.632812 177.597656 0l-36.75-88.695313c-33.316406 13.847656-70.78125 13.847656-104.097656 0zm0 0" fill="#e34b87"/><path d="m292.113281 365.671875 36.75 88.695313c56.882813-23.484376 102.0625-68.664063 125.542969-125.542969l-88.695312-36.753907c-13.765626 33.347657-40.25 59.835938-73.597657 73.601563zm0 0" fill="#b662e3"/><path d="m292.113281 114.375 36.75-88.695312c-56.839843-23.632813-120.757812-23.632813-177.597656 0l36.734375 88.695312c33.320312-13.851562 70.789062-13.851562 104.113281 0zm0 0" fill="#88b337"/><path d="m114.417969 187.972656-88.699219-36.75c-23.628906 56.839844-23.628906 120.757813 0 177.601563l88.699219-36.738281c-13.855469-33.320313-13.855469-70.789063 0-104.113282zm0 0" fill="#fd882f"/><path d="m365.710938 187.972656 88.695312-36.75c-23.480469-56.882812-68.660156-102.0625-125.542969-125.542968l-36.75 88.695312c33.347657 13.765625 59.832031 40.25 73.597657 73.597656zm0 0" fill="#87ced9"/><path d="m188.015625 114.375-36.75-88.695312c-56.882813 23.480468-102.0625 68.660156-125.546875 125.542968l88.699219 36.734375c13.765625-33.339843 40.253906-59.820312 73.597656-73.582031zm0 0" fill="#fdb62f"/><path d="m124.726562 86.421875-9.597656-12.800781c4.976563-3.726563 10.230469-7.292969 15.597656-10.597656l8.386719 13.597656c-4.945312 3.074218-9.792969 6.363281-14.386719 9.800781zm0 0" fill="#fdd384"/><path d="m76.6875 139.078125-13.597656-8.375c11.253906-18.347656 25.320312-34.8125 41.679687-48.800781l10.398438 12.175781c-15.101563 12.894531-28.085938 28.078125-38.480469 45zm0 0" fill="#fdd384"/><path d="m216.0625 160.023438v128l16 32h16l16-32v-128zm0 0" fill="#87ced9"/><path d="m240.0625 352.023438-19 42.757812c-2.855469 6.433594-2.261719 13.875 1.570312 19.773438 3.835938 5.902343 10.394532 9.464843 17.429688 9.46875 7.039062-.003907 13.597656-3.566407 17.433594-9.46875 3.832031-5.898438 4.421875-13.339844 1.566406-19.773438zm0 0" fill="#4398d1"/><path d="m264.0625 152.023438v-72c0-13.253907-10.742188-24-24-24-13.253906 0-24 10.746093-24 24v72h-24v16h96v-16zm0 0" fill="#e8594a"/><path d="m256.0625 206.132812c-5.035156 2.519532-10.960938 2.519532-16 0-5.035156-2.519531-10.960938-2.519531-16 0l-8 2.1875v79.703126l16 32h16l16-32v-87.832032zm0 0" fill="#4398d1"/><path d="m216.0625 168.023438h48v16h-48zm0 0" fill="#71c4d1"/><path d="m331.902344 18.285156c-89.6875-37.167968-192.9375-16.640625-261.589844 52.007813-68.652344 68.652343-89.179688 171.902343-52.007812 261.59375 37.148437 89.675781 124.660156 148.148437 221.726562 148.148437 97.070312 0 184.578125-58.472656 221.730469-148.148437 50.742187-122.457031-7.398438-262.863281-129.859375-313.601563zm111.921875 128.679688-73.984375 30.65625c-14.078125-29.5-37.855469-53.28125-67.359375-67.359375l30.640625-73.992188c49.101562 22.253907 88.445312 61.59375 110.703125 110.695313zm-296.816407-110.710938 30.640626 73.992188c-29.5 14.082031-53.277344 37.859375-67.359376 67.359375l-73.984374-30.640625c22.257812-49.101563 61.601562-88.449219 110.703124-110.710938zm-116.824218 125.496094 73.976562 30.640625c-10.90625 30.820313-10.90625 64.445313 0 95.265625l-73.976562 30.636719c-18.992188-50.453125-18.992188-106.089844 0-156.542969zm6.121094 171.328125 73.984374-30.640625c14.082032 29.503906 37.859376 53.28125 67.359376 67.359375l-30.640626 73.992187c-49.105468-22.257812-88.449218-61.601562-110.703124-110.710937zm125.488281 116.800781 28.109375-67.871094 2.53125-6.113281c4.535156 1.601563 9.132812 2.945313 13.75 4.0625l3.761718-15.542969c-6.433593-1.566406-12.738281-3.625-18.855468-6.152343-47.832032-19.8125-79.015625-66.484375-79.015625-118.253907 0-51.773437 31.183593-98.445312 79.015625-118.257812 4.082031-1.691406 6.019531-6.371094 4.328125-10.457031l-33.601563-81.167969c50.453125-18.984375 106.089844-18.984375 156.542969 0l-33.597656 81.167969c-1.695313 4.085937.242187 8.765625 4.328125 10.457031 47.828125 19.8125 79.011718 66.484375 79.011718 118.257812 0 51.769532-31.183593 98.441407-79.011718 118.253907-6.125 2.527343-12.429688 4.589843-18.867188 6.167969l3.777344 15.542968c4.617188-1.125 9.214844-2.484375 13.742188-4.078125l2.53125 6.113281 28.109374 67.871094c-50.464843 19.003906-106.117187 19.011719-156.589843.023438zm171.328125-6.113281-30.65625-73.96875c29.5-14.078125 53.277344-37.855469 67.359375-67.359375l73.984375 30.640625c-22.25 49.105469-61.589844 88.453125-110.6875 110.710937zm116.800781-125.496094-73.976563-30.640625c10.902344-30.816406 10.902344-64.445312 0-95.261718l73.976563-30.640626c19.003906 50.457032 19.011719 106.105469.023437 156.566407zm0 0"/><path d="m139.121094 76.636719-8.386719-13.597657c-5.367187 3.304688-10.621094 6.871094-15.597656 10.597657l9.597656 12.800781c4.585937-3.453125 9.433594-6.742188 14.386719-9.800781zm0 0"/><path d="m76.6875 139.078125c10.386719-16.90625 23.355469-32.078125 38.441406-44.96875l-10.402344-12.175781c-16.359374 13.988281-30.421874 30.457031-41.679687 48.800781zm0 0"/><path d="m232.0625 328.023438h16c3.046875.015624 5.839844-1.699219 7.203125-4.425782l16-32c.539063-1.113281.8125-2.335937.796875-3.574218v-120h16v-16h-16v-72c0-17.675782-14.324219-32-32-32-17.671875 0-32 14.324218-32 32v72h-16v16h16v120c0 1.238281.289062 2.464843.839844 3.574218l16 32c1.355468 2.714844 4.128906 4.425782 7.160156 4.425782zm-8-248c0-8.835938 7.164062-16 16-16 8.839844 0 16 7.164062 16 16v72h-32zm32 88v28l-4.167969 3.199218c-2.65625 1.125-5.675781 1.023438-8.253906-.273437-6.109375-2.972657-13.136719-3.425781-19.578125-1.261719v-29.664062zm-32 46.335937 1.839844-.441406c.601562-.144531 1.183594-.355469 1.738281-.632813 2.785156-1.382812 6.054687-1.382812 8.839844 0 6.070312 3.117188 13.15625 3.582032 19.582031 1.289063v71.558593l-12.941406 25.890626h-6.113282l-12.945312-25.890626zm0 0"/><path d="m247.375 348.773438c-1.28125-2.890626-4.148438-4.753907-7.3125-4.753907-3.160156 0-6.027344 1.863281-7.308594 4.753907l-19 42.753906c-5.378906 12.078125-1.839844 26.265625 8.582032 34.40625 10.417968 8.136718 25.039062 8.136718 35.457031 0 10.417969-8.140625 13.957031-22.328125 8.582031-34.40625zm3.417969 61.417968c-2.460938 3.484375-6.464844 5.554688-10.730469 5.554688s-8.265625-2.070313-10.726562-5.554688c-2.402344-3.613281-2.765626-8.210937-.96875-12.160156l11.695312-26.3125 11.699219 26.3125c1.796875 3.949219 1.433593 8.546875-.96875 12.160156zm0 0"/></svg>