<?xml version="1.0"?>
<svg xmlns="http://www.w3.org/2000/svg" height="512px" viewBox="0 0 512 512" width="512px" class=""><g><g id="Filled_outline" data-name="Filled outline"><path d="m336 488h-160l24-80h112z" fill="#d6d6d4" data-original="#D6D6D4" class="" style="fill:#D6D6D4"/><path d="m56 88a32 32 0 0 0 -32 32v224h464v-224a32 32 0 0 0 -32-32z" fill="#348fd9" data-original="#348FD9" class="" style="fill:#57585A" data-old_color="#348fd9"/><path d="m448 344h-56v-256h40l16 16z" fill="#3086cd" data-original="#3086CD" class="active-path" style="fill:#9CA5AB" data-old_color="#3086cd"/><path d="m24 328h464v16h-464z" fill="#3086cd" data-original="#3086CD" class="active-path" style="fill:#9CA5AB" data-old_color="#3086cd"/><path d="m488 344v32a32 32 0 0 1 -32 32h-400a32 32 0 0 1 -32-32v-32z" fill="#e0e0de" data-original="#E0E0DE" class=""/><path d="m432 104v240h-352v-296a24.006 24.006 0 0 1 24-24h248l39.52 39.52z" fill="#60d1e0" data-original="#60D1E0" class="" style="fill:#E14C27" data-old_color="#60d1e0"/><path d="m432 104v240h-325.72l285.24-280.48z" fill="#5bccd9" data-original="#5BCCD9" class="" style="fill:#EB602E" data-old_color="#5bccd9"/><path d="m432 104h-48a32 32 0 0 1 -32-32v-48z" fill="#9fe4ed" data-original="#9FE4ED" class="" style="fill:#FFFFFF" data-old_color="#9fe4ed"/><path d="m488 344v32a32 32 0 0 1 -32 32h-206.56l65.08-64z" fill="#dbdbd9" data-original="#DBDBD9" class="" style="fill:#DBDBD9"/><path d="m80 328h352v16h-352z" fill="#5bccd9" data-original="#5BCCD9" class="" style="fill:#EB602E" data-old_color="#5bccd9"/><path d="m456 80v16a24.028 24.028 0 0 1 24 24v216h-448v-216a24.028 24.028 0 0 1 24-24v-16a40.045 40.045 0 0 0 -40 40v256a40.045 40.045 0 0 0 40 40h133.247l-19.2 64h-18.047v16h208v-16h-18.047l-19.2-64h133.247a40.045 40.045 0 0 0 40-40v-256a40.045 40.045 0 0 0 -40-40zm-130.752 400h-138.5l19.2-64h100.1zm154.752-104a24.028 24.028 0 0 1 -24 24h-400a24.028 24.028 0 0 1 -24-24v-24h448z" data-original="#000000" class="" style="fill:#000000"/><path d="m440 320v-216a8 8 0 0 0 -2.343-5.657l-80-80a8 8 0 0 0 -5.657-2.343h-248a32.036 32.036 0 0 0 -32 32v272h16v-272a16.019 16.019 0 0 1 16-16h240v40a40.045 40.045 0 0 0 40 40h40v208zm-56-224a24.028 24.028 0 0 1 -24-24v-28.687l52.687 52.687z" data-original="#000000" class="" style="fill:#000000"/><path d="m104 48h16v16h-16z" data-original="#000000" class="" style="fill:#000000"/><path d="m136 48h16v16h-16z" data-original="#000000" class="" style="fill:#000000"/><path d="m168 48h16v16h-16z" data-original="#000000" class="" style="fill:#000000"/><path d="m104 80h224v16h-224z" data-original="#000000" class="" style="fill:#000000"/><path d="m107 182.247 40 32 10-12.494-32.193-25.753 32.193-25.753-10-12.494-40 32a8 8 0 0 0 0 12.494z" data-original="#000000" class="" style="fill:#000000"/><path d="m221 214.247 40-32a8 8 0 0 0 0-12.494l-40-32-10 12.494 32.193 25.753-32.193 25.753z" data-original="#000000" class="" style="fill:#000000"/><path d="m130.523 168h98.955v15.999h-98.955z" transform="matrix(.243 -.97 .97 .243 -34.401 307.939)" data-original="#000000" class="" style="fill:#000000"/><path d="m288 128h120v16h-120z" data-original="#000000" class="" style="fill:#000000"/><path d="m288 168h72v16h-72z" data-original="#000000" class="" style="fill:#000000"/><path d="m376 168h32v16h-32z" data-original="#000000" class="" style="fill:#000000"/><path d="m288 208h120v16h-120z" data-original="#000000" class="" style="fill:#000000"/><path d="m176 248h232v16h-232z" data-original="#000000" class="" style="fill:#000000"/><path d="m104 248h56v16h-56z" data-original="#000000" class="" style="fill:#000000"/><path d="m360 288h48v16h-48z" data-original="#000000" class="" style="fill:#000000"/><path d="m104 288h240v16h-240z" data-original="#000000" class="" style="fill:#000000"/></g></g> </svg>
