<svg height="512" viewBox="0 0 512 512" width="512" xmlns="http://www.w3.org/2000/svg"><g id="Filled_outline" data-name="Filled outline"><rect fill="#d3669a" height="464" rx="32" width="256" x="128" y="24"/><path d="m384 56v400a32 32 0 0 1 -32 32h-192a32 32 0 0 1 -32-32v-100.54c85.05-65.99 161.23-171.56 215.72-331.46h8.28a32 32 0 0 1 32 32z" fill="#cc5e92"/><path d="m216 40h80l8-16h-96z" fill="#b73e7e"/><path d="m433.976 342.469-49.976-62.469v80l-47.934-61.63a26.862 26.862 0 0 0 -21.2-10.37 26.863 26.863 0 0 0 -26.866 26.862v3.921a26.863 26.863 0 0 0 5.658 16.492l50.342 64.725a73.712 73.712 0 0 0 1.875 78.813l6.125 9.187v8h96v-113.55a64 64 0 0 0 -14.024-39.981z" fill="#fec9a3"/><path d="m216 248h-56v48l-64-48h-40a32 32 0 0 1 -32-32v-112a32 32 0 0 1 32-32h160a32 32 0 0 1 32 32v112a32 32 0 0 1 -32 32z" fill="#ffa912"/><path d="m312 224h40v48l64-48h40a32 32 0 0 0 32-32v-80a32 32 0 0 0 -32-32h-144a32 32 0 0 0 -32 32v80a32 32 0 0 0 32 32z" fill="#60d1e0"/><path d="m248 376h-24v-48l-64 48h-72a32 32 0 0 0 -32 32v48a32 32 0 0 0 32 32h160a32 32 0 0 0 32-32v-48a32 32 0 0 0 -32-32z" fill="#348fd9"/><path d="m160 32h43.056l5.789 11.578a8 8 0 0 0 7.155 4.422h80a8 8 0 0 0 7.155-4.422l5.789-11.578h43.056a24.027 24.027 0 0 1 24 24h16a40.045 40.045 0 0 0 -40-40h-192a39.982 39.982 0 0 0 -38.739 30.005l15.5 3.99a23.985 23.985 0 0 1 23.239-17.995z"/><path d="m390.247 275a8 8 0 0 0 -14.247 5v56.684l-33.619-43.225a34.862 34.862 0 0 0 -62.381 21.403v3.921a35.029 35.029 0 0 0 7.344 21.4l47.1 60.56a82.154 82.154 0 0 0 2.731 79.257h-57.2a39.788 39.788 0 0 0 8.025-24v-48a40.045 40.045 0 0 0 -40-40h-16v-40a8 8 0 0 0 -12.8-6.4l-61.867 46.4h-21.333v-64h-16v64h-32a40.045 40.045 0 0 0 -40 40v48a40.045 40.045 0 0 0 40 40h272v-8a7.993 7.993 0 0 0 -1.344-4.438l-6.124-9.187a66 66 0 0 1 -1.672-70.259 8 8 0 0 0 -.545-9.028l-50.341-64.724a18.951 18.951 0 0 1 -3.974-11.581v-3.921a18.862 18.862 0 0 1 33.751-11.58l47.9 61.59 23.949 31.928 12.8-9.6-22.4-29.866v-54.528l35.729 44.661a56.2 56.2 0 0 1 12.271 34.983v113.55h16v-113.55a72.265 72.265 0 0 0 -15.777-44.978zm-302.247 205a24.027 24.027 0 0 1 -24-24v-48a24.027 24.027 0 0 1 24-24h72a8 8 0 0 0 4.8-1.6l51.2-38.4v32a8 8 0 0 0 8 8h24a24.027 24.027 0 0 1 24 24v48a24.027 24.027 0 0 1 -24 24z"/><path d="m93.333 256 61.867 46.4a8 8 0 0 0 12.8-6.4v-40h48a40.045 40.045 0 0 0 40-40v-112a40.045 40.045 0 0 0 -40-40h-160a40.045 40.045 0 0 0 -40 40v112a40.045 40.045 0 0 0 40 40zm-61.333-40v-112a24.027 24.027 0 0 1 24-24h160a24.027 24.027 0 0 1 24 24v112a24.027 24.027 0 0 1 -24 24h-56a8 8 0 0 0 -8 8v32l-51.2-38.4a8 8 0 0 0 -4.8-1.6h-40a24.027 24.027 0 0 1 -24-24z"/><path d="m68.118 152h135.765v16h-135.765z" transform="matrix(.707 -.707 .707 .707 -73.304 143.029)"/><path d="m96 152a24 24 0 1 0 -24-24 24.027 24.027 0 0 0 24 24zm0-32a8 8 0 1 1 -8 8 8.009 8.009 0 0 1 8-8z"/><path d="m152 184a24 24 0 1 0 24-24 24.027 24.027 0 0 0 -24 24zm32 0a8 8 0 1 1 -8-8 8.009 8.009 0 0 1 8 8z"/><path d="m456 72h-144a40.045 40.045 0 0 0 -40 40v80a40.045 40.045 0 0 0 40 40h32v40a8 8 0 0 0 12.8 6.4l61.867-46.4h37.333a40.045 40.045 0 0 0 40-40v-80a40.045 40.045 0 0 0 -40-40zm24 120a24.028 24.028 0 0 1 -24 24h-40a8 8 0 0 0 -4.8 1.6l-51.2 38.4v-32a8 8 0 0 0 -8-8h-40a24.028 24.028 0 0 1 -24-24v-80a24.028 24.028 0 0 1 24-24h144a24.028 24.028 0 0 1 24 24z"/><path d="m312 112h144v16h-144z"/><path d="m312 144h80v16h-80z"/><path d="m312 176h144v16h-144z"/><path d="m408 144h48v16h-48z"/><path d="m200 440h48v16h-48z"/><path d="m88 408h160v16h-160z"/><path d="m88 440h96v16h-96z"/></g></svg>