<?xml version="1.0"?>
<svg xmlns="http://www.w3.org/2000/svg" viewBox="0 0 512 512" width="512" height="512"><g id="Fill_out_line" data-name="Fill out line"><rect x="104" y="184.00017" width="48" height="40" style="fill:#396797"/><rect x="72" y="184.00017" width="32" height="40" style="fill:#2d80b5"/><rect x="392" y="184.00017" width="48" height="40" style="fill:#396797"/><rect x="360" y="184.00017" width="32" height="40" style="fill:#2d80b5"/><path d="M392,184H360a128,128,0,0,0-256,0H72a160,160,0,1,1,320,0Z" style="fill:#8ccee9"/><path d="M440,184.00017V184c0-92.78375-75.21609-160-167.99983-160h-40A159.99984,159.99984,0,0,1,392,183.99984V184Z" style="fill:#37a0c5"/><path d="M258.66992,58.79C197.65991,70.58008,152,118.96,152,184H104A128.08181,128.08181,0,0,1,258.66992,58.79Z" style="fill:#37a0c5"/><path d="M96,352v64.00006A55.99994,55.99994,0,0,0,151.99994,472H152V440h0a24,24,0,0,1-24-24V336Z" style="fill:#8ccee9"/><path d="M240,456a31.99159,31.99159,0,0,1-32,32H176a30.83342,30.83342,0,0,1-3.98-.25A31.9989,31.9989,0,0,1,176,424h32A32.00409,32.00409,0,0,1,240,456Z" style="fill:#2f4054"/><path d="M383.99993,216H416a0,0,0,0,1,0,0V360a0,0,0,0,1,0,0H383.99993A71.99993,71.99993,0,0,1,312,288.00007v-.00014A71.99993,71.99993,0,0,1,383.99993,216Z" style="fill:#c6d6e2"/><circle cx="416" cy="288" r="72" style="fill:#a8b4be"/><path d="M95.99993,216H128a0,0,0,0,1,0,0V360a0,0,0,0,1,0,0H95.99993A71.99993,71.99993,0,0,1,24,288.00007v-.00014A71.99993,71.99993,0,0,1,95.99993,216Z" style="fill:#c6d6e2"/><circle cx="128" cy="288" r="72" style="fill:#a8b4be"/><path d="M416,328a40,40,0,1,1,40-40A40.04584,40.04584,0,0,1,416,328Zm0-64a24,24,0,1,0,24,24A24.0275,24.0275,0,0,0,416,264Z"/><path d="M448,214.68994V184c0-46.62012-18.37988-89.47-51.75-120.64014C363.56006,32.82007,319.43994,16,272,16H232C139.35986,16,64,91.35986,64,184v30.68994A79.99982,79.99982,0,0,0,88,367.60986V416a64.17645,64.17645,0,0,0,55.62012,63.46A39.96516,39.96516,0,0,0,176,496h32a40,40,0,0,0,0-80H176a39.924,39.924,0,0,0-30.79,14.49023A16.123,16.123,0,0,1,136,416V367.60986a79.99982,79.99982,0,0,0,24-152.91992V184c0-58.07007,39.54-104.91992,98.56006-117.03A120.19907,120.19907,0,0,1,352,184v30.68994A79.99326,79.99326,0,0,0,384,368h32a79.99326,79.99326,0,0,0,32-153.31006ZM176,432h32a24,24,0,1,1-24,24H168a39.74255,39.74255,0,0,0,8.02,24H176a24,24,0,0,1,0-48ZM385.33008,75.05005c28.17993,26.32983,44.51,61.92993,46.47,100.95h-31.99A168.17112,168.17112,0,0,0,312.6499,36.65991,159.34357,159.34357,0,0,1,385.33008,75.05005ZM432,192v17.60986A79.60243,79.60243,0,0,0,416,208H400V192ZM80,192H96v16a79.60243,79.60243,0,0,0-16,1.60986ZM32,288a64.11467,64.11467,0,0,1,44.1001-60.83008,79.89143,79.89143,0,0,0,0,121.66016A64.11467,64.11467,0,0,1,32,288ZM137.65991,444.58984a40.20419,40.20419,0,0,0-1.3,16.8003A48.15918,48.15918,0,0,1,104,416V368h16v48A32.2414,32.2414,0,0,0,137.65991,444.58984ZM192,288a64,64,0,1,1-64-64A64.07207,64.07207,0,0,1,192,288Zm-80-80V192h32v17.60986A79.60243,79.60243,0,0,0,128,208ZM176.43994,96.1499c-19.51,22.24024-30.56006,49.71-32.22,79.8501H112.27a120.18835,120.18835,0,0,1,104.29-111.01A137.34632,137.34632,0,0,0,176.43994,96.1499ZM232,48c-72.3,0-131.60986,56.72-135.76,128H80.21C84.37988,95.89014,150.87012,32,232,32S379.62012,95.89014,383.79,176H367.76C363.60986,104.72,304.30005,48,232,48ZM384,192v16a79.60243,79.60243,0,0,0-16,1.60986V192Zm-64,96a64.11467,64.11467,0,0,1,44.1001-60.83008,79.89143,79.89143,0,0,0,0,121.66016A64.11467,64.11467,0,0,1,320,288Zm96,64a64,64,0,1,1,64-64A64.07207,64.07207,0,0,1,416,352Z"/><path d="M128,328a40,40,0,1,1,40-40A40.04584,40.04584,0,0,1,128,328Zm0-64a24,24,0,1,0,24,24A24.0275,24.0275,0,0,0,128,264Z"/></g></svg>
